<svg enable-background="new 0 0 80 40" viewBox="0 0 80 40" xmlns="http://www.w3.org/2000/svg"><path d="m57.9 4.5h-35.8c-2 0-3.6 1.6-3.6 3.6v24c0 1 .4 1.9 1.1 2.6s1.6 1 2.5 1h35.7c2 0 3.6-1.6 3.6-3.6v-24.1c0-1.9-1.6-3.5-3.5-3.5zm-.2 1.9-13.5 11c-1.3 1-2.7 1.5-4.2 1.5-1.4 0-2.9-.5-4.1-1.5l-13.6-11zm-37.2 1.1 13.2 10.9-13.2 13.8zm1.3 26.2 13.5-14.2.3.2c2.7 1.7 6 1.7 8.7 0l.3-.2 13.5 14.2zm37.7-1.5-13.3-13.9 13.3-10.8z"/><path d="m79 19h-7.6c-.6 0-1 .4-1 1s.4 1 1 1h7.6c.6 0 1-.4 1-1s-.4-1-1-1z"/><path d="m68.7 36.5 6.7 3.5c.1.1.3.1.4.1.6 0 1-.4 1-1 0-.4-.2-.7-.5-.9l-6.7-3.5c-.5-.2-1.1 0-1.3.5-.3.5-.1 1 .4 1.3z"/><path d="m69.1 5.4c.2 0 .3 0 .4-.1l6.7-3.5c.6-.2.8-.8.5-1.3s-.8-.6-1.3-.4l-6.7 3.5c-.5.3-.7.9-.4 1.3.1.3.5.6.8.5z"/><path d="m1 21h7.6c.6 0 1-.4 1-1s-.4-1-1-1h-7.6c-.6 0-1 .4-1 1s.4 1 1 1z"/><path d="m11.8 4.9c.3-.5.1-1.1-.4-1.3l-6.8-3.5c-.5-.2-1.1 0-1.3.5-.3.5-.1 1 .4 1.3l6.7 3.5c.1.1.3.1.4.1.4 0 .8-.3 1-.6z"/><path d="m3.3 39.5c.2.3.5.5.9.5.2 0 .3 0 .4-.1l6.7-3.5c.5-.3.7-.9.4-1.4s-.8-.6-1.3-.4l-6.7 3.5c-.5.3-.7.9-.4 1.4z"/></svg>